Coordinates
version=1
nRows=26
nColumns=24
inDegrees=yes

Units are S.I. units (second, meters, Newtons, ...)
Angles are in degrees.

endheader
time	pelvis_tilt	pelvis_list	pelvis_rotation	pelvis_tx	pelvis_ty	pelvis_tz	hip_flexion_r	hip_adduction_r	hip_rotation_r	knee_angle_r	ankle_angle_r	subtalar_angle_r	mtp_angle_r	hip_flexion_l	hip_adduction_l	hip_rotation_l	knee_angle_l	ankle_angle_l	subtalar_angle_l	mtp_angle_l	lumbar_extension	lumbar_bending	lumbar_rotation
      0.85850000	     -6.42433576	     -0.40601352	      0.89686766	     -0.33466279	      1.06865423	      0.33914003	     15.75853541	      3.39514681	     -1.50922804	    -16.07888645	      9.06839466	     -5.51589429	      4.63024424	     24.49624949	     -5.15738115	     -5.36963236	    -67.00913095	     12.17253008	      7.78933798	      2.30150321	      0.74242494	      6.08310916	      0.91469635
      0.86266667	     -6.44356718	     -0.29809526	      0.72475672	     -0.32993303	      1.06922552	      0.33968085	     15.36510007	      3.34931720	     -1.31293115	    -15.79392324	      9.16393539	     -5.45765669	      4.62425497	     24.93746368	     -5.11532595	     -5.61060767	    -66.40182838	     12.33347311	      7.87238278	      2.29744469	      0.76440833	      5.96206715	      0.97555636
      0.86683333	     -6.43172423	     -0.20042106	      0.55828403	     -0.32522023	      1.06982406	      0.34021468	     14.92928387	      3.31655485	     -1.08803942	    -15.48686773	      9.25515813	     -5.50724790	      4.60378620	     25.33610242	     -5.08457426	     -5.83860308	    -65.75398938	     12.47914485	      8.01316760	      2.28268141	      0.74339367	      5.84579071	      1.22986481
      0.87100000	     -6.42725196	     -0.10906687	      0.39181162	     -0.32052344	      1.07035892	      0.34073482	     14.50643741	      3.28516130	     -0.87700413	    -15.18630742	      9.33995395	     -5.51487278	      4.58535553	     25.73799207	     -5.06086507	     -6.06498322	    -65.08140972	     12.60834222	      8.10708887	      2.26762676	      0.72946754	      5.73790495	      1.38280667
      0.87516667	     -6.45989149	      0.00182171	      0.22015975	     -0.31583268	      1.07079235	      0.34124652	     14.13816323	      3.22789278	     -0.67594171	    -14.91573709	      9.43646676	     -5.48392596	      4.57790101	     26.16608670	     -5.01319841	     -6.29195090	    -64.36653671	     12.71412604	      8.17597944	      2.25958480	      0.76096959	      5.62660981	      1.46019208
      0.87933333	     -6.46378032	      0.09259981	      0.05725706	     -0.31115778	      1.07123077	      0.34173575	     13.73377410	      3.18973168	     -0.47434823	    -14.63120571	      9.53084525	     -5.49332440	      4.56840822	     26.55892582	     -4.98465135	     -6.50266214	    -63.62591405	     12.80828785	      8.24158041	      2.24913150	      0.75781754	      5.52965873	      1.59607811
      0.88350000	     -6.46033512	      0.17142282	     -0.09805493	     -0.30649598	      1.07163248	      0.34221994	     13.31414040	      3.16288683	     -0.26255992	    -14.32750806	      9.61438588	     -5.54597504	      4.55153197	     26.93996785	     -4.96882465	     -6.70210335	    -62.86291293	     12.88629649	      8.28893203	      2.22981823	      0.73809998	      5.41439156	      1.80192473
      0.88766667	     -6.48347696	      0.25697339	     -0.25563082	     -0.30184835	      1.07193880	      0.34269002	     12.93722858	      3.12455751	     -0.06022786	    -14.05143690	      9.70054837	     -5.56210637	      4.53396650	     27.33925117	     -4.94156982	     -6.89253549	    -62.06744396	     12.94847578	      8.31188104	      2.20692476	      0.74828577	      5.31779801	      1.93761076
      0.89183333	     -6.51205085	      0.34510757	     -0.40910665	     -0.29720258	      1.07220762	      0.34312787	     12.57473760	      3.07639320	      0.11377155	    -13.79459511	      9.80796586	     -5.54142912	      4.52876987	     27.73197842	     -4.90662299	     -7.07589425	    -61.23422185	     12.99350878	      8.31916562	      2.19551627	      0.77224569	      5.22983720	      1.98725785
      0.89600000	     -6.52646645	      0.42100327	     -0.55505794	     -0.29257847	      1.07243881	      0.34355958	     12.19381794	      3.04076948	      0.29933096	    -13.52753734	      9.91257849	     -5.58076776	      4.51675704	     28.10529065	     -4.88158679	     -7.24122909	    -60.38017557	     13.02063521	      8.28980226	      2.17390547	      0.77435322	      5.13564844	      2.13782583
      0.90016667	     -6.58386459	      0.49174044	     -0.69926194	     -0.28796006	      1.07254314	      0.34396264	     11.86972382	      3.00535537	      0.46893603	    -13.28062940	     10.01937858	     -5.55225414	      4.51340747	     28.51893255	     -4.85850912	     -7.39589253	    -59.50598128	     13.04789568	      8.25931100	      2.16251241	      0.81864058	      5.05981191	      2.18150685
      0.90433333	     -6.61389993	      0.56615831	     -0.84105936	     -0.28337232	      1.07267788	      0.34434908	     11.52270745	      2.96376518	      0.64318520	    -13.04596125	     10.12652211	     -5.57773018	      4.50661742	     28.88815351	     -4.82344894	     -7.53391377	    -58.58759010	     13.04284610	      8.18114469	      2.14501982	      0.83264649	      4.98641017	      2.27952309
      0.90850000	     -6.66677903	      0.62308636	     -0.96812215	     -0.27878272	      1.07270312	      0.34470261	     11.19718940	      2.93701142	      0.80468971	    -12.80458388	     10.23586817	     -5.61297289	      4.49548129	     29.28124436	     -4.79977101	     -7.64727522	    -57.65879615	     13.03049171	      8.06871774	      2.11935634	      0.87480928	      4.91881999	      2.40560462
      0.91266667	     -6.70313262	      0.68260412	     -1.10136918	     -0.27422371	      1.07273250	      0.34504757	     10.86556985	      2.90390820	      0.96233650	    -12.58385555	     10.34863235	     -5.60133697	      4.49032786	     29.64200598	     -4.77327779	     -7.75979607	    -56.69434095	     13.01850928	      7.97010734	      2.10187769	      0.88260669	      4.86125114	      2.45145930
      0.91683333	     -6.76012986	      0.73807757	     -1.22569450	     -0.26966819	      1.07266794	      0.34536674	     10.56071267	      2.87214625	      1.10799212	    -12.37254623	     10.47232309	     -5.60673223	      4.48459656	     30.01736095	     -4.74324676	     -7.85191053	    -55.70791944	     12.98678049	      7.82013916	      2.08148249	      0.91928851	      4.80319889	      2.51711661
      0.92100000	     -6.81771423	      0.77458842	     -1.34303028	     -0.26512725	      1.07256532	      0.34565396	     10.25794320	      2.85671628	      1.24628238	    -12.16443196	     10.59201202	     -5.60563351	      4.47913870	     30.38677715	     -4.72546502	     -7.91909445	    -54.70167009	     12.95125639	      7.65754980	      2.06090987	      0.95170073	      4.77149750	      2.57597439
      0.92516667	     -6.86879871	      0.80708066	     -1.45031570	     -0.26060309	      1.07243106	      0.34591057	      9.95035242	      2.84161585	      1.37068707	    -11.95874903	     10.71669285	     -5.61063589	      4.46820939	     30.74049260	     -4.70193867	     -7.96342594	    -53.66995927	     12.89924609	      7.44930466	      2.02936365	      0.97356257	      4.73834187	      2.65805706
      0.92933333	     -6.94272199	      0.84185794	     -1.56596628	     -0.25608222	      1.07221190	      0.34617429	      9.67904304	      2.82362229	      1.50070739	    -11.77796606	     10.85087320	     -5.59501681	      4.46303742	     31.10425239	     -4.68153405	     -8.01466711	    -52.61168595	     12.85366977	      7.26325864	      2.00704279	      1.01961263	      4.70847115	      2.68769904
      0.93350000	     -7.02143795	      0.86287958	     -1.67005435	     -0.25156966	      1.07194210	      0.34640089	      9.41303331	      2.81667752	      1.61394681	    -11.59756305	     10.98744611	     -5.57805794	      4.45724157	     31.46616940	     -4.66500093	     -8.03708894	    -51.53412274	     12.79407497	      7.03835633	      1.98281909	      1.06816918	      4.69444058	      2.72491810
      0.93766667	     -7.10274400	      0.86847791	     -1.76730359	     -0.24707300	      1.07162485	      0.34660188	      9.15261572	      2.82295081	      1.71690048	    -11.42255051	     11.12509322	     -5.55915343	      4.45126020	     31.82440816	     -4.65827687	     -8.03870211	    -50.43991247	     12.73422731	      6.80813695	      1.95779310	      1.11684149	      4.69995449	      2.75915327
      0.94183333	     -7.18241551	      0.87007622	     -1.86310808	     -0.24257276	      1.07128504	      0.34679282	      8.89180343	      2.83187723	      1.81500206	    -11.25135882	     11.26387686	     -5.53409736	      4.44490902	     32.16601489	     -4.65246127	     -8.03012162	    -49.31747923	     12.66820797	      6.56714367	      1.93174624	      1.16108913	      4.70956667	      2.78531750
      0.94600000	     -7.27696999	      0.86464366	     -1.95310972	     -0.23808304	      1.07087051	      0.34696289	      8.65129360	      2.84596540	      1.90434510	    -11.08902088	     11.40845083	     -5.50263811	      4.43824267	     32.51564170	     -4.64887196	     -8.00473549	    -48.17810432	     12.60080880	      6.32012260	      1.90464554	      1.21972357	      4.72866486	      2.80688384
      0.95016667	     -7.36539599	      0.85403975	     -2.03741020	     -0.23357670	      1.07044091	      0.34711930	      8.40041230	      2.86301447	      1.98402453	    -10.92124577	     11.55544995	     -5.46268597	      4.43180634	     32.84431086	     -4.64665973	     -7.96883469	    -47.01442485	     12.53118648	      6.07753843	      1.87778522	      1.26472354	      4.75170254	      2.81861779
      0.95433333	     -7.46251868	      0.83126311	     -2.11863992	     -0.22907784	      1.06996236	      0.34725929	      8.16038147	      2.89184193	      2.06262355	    -10.75832703	     11.70262149	     -5.41896819	      4.42558909	     33.17238518	     -4.65365574	     -7.91804772	    -45.83184257	     12.46399682	      5.84402768	      1.85221932	      1.32058657	      4.79256827	      2.82545254
      0.95850000	     -7.55435886	      0.79386081	     -2.19661803	     -0.22458526	      1.06944734	      0.34739135	      7.91826573	      2.93516072	      2.13147021	    -10.60529063	     11.85016227	     -5.37351878	      4.41800713	     33.48533340	     -4.67126022	     -7.84721275	    -44.63370827	     12.39425659	      5.60557864	      1.82502045	      1.37099181	      4.84510887	      2.82609891
      0.96266667	     -7.65308796	      0.75379793	     -2.27108441	     -0.22007908	      1.06890358	      0.34752182	      7.68085952	      2.98046443	      2.19657950	    -10.44817545	     11.99531233	     -5.32601151	      4.41004297	     33.79133391	     -4.69055552	     -7.77171243	    -43.41257616	     12.32692602	      5.38917789	      1.79843148	      1.42573565	      4.90059999	      2.82081265
